<svg version="1.1" id="Layer_1" xmlns="http://www.w3.org/2000/svg" xmlns:xlink="http://www.w3.org/1999/xlink" x="0px" y="0px"
	 width="100%" viewBox="0 0 816 1024" enable-background="new 0 0 816 1024" xml:space="preserve">
<path fill="#000000" opacity="1.000000" stroke="none" 
	d="
M239.971939,732.020569 
	C240.758087,730.533081 240.140656,729.106750 239.785782,727.667297 
	C238.989487,724.437195 240.419998,721.886475 243.012726,720.502808 
	C245.450470,719.201904 248.374985,718.648254 250.622498,721.430725 
	C252.072556,723.225891 254.621002,723.863037 256.344482,724.604736 
	C263.555054,727.707458 265.618652,735.279968 270.959747,739.940552 
	C273.747375,742.373047 274.859161,746.954346 276.201569,750.751221 
	C277.581329,754.653809 280.128662,756.145447 283.590668,753.864624 
	C285.512604,752.598389 287.424805,752.069641 289.543640,751.789490 
	C292.282990,759.467468 290.881104,764.439758 285.229858,769.659241 
	C279.388336,775.054504 274.384827,781.074829 274.806641,789.770325 
	C275.259430,799.103699 269.666504,805.566406 264.420837,812.279602 
	C260.730896,817.001892 258.675171,822.758972 254.997116,827.548279 
	C250.464005,833.451111 244.948532,837.111938 237.263504,836.978638 
	C227.761246,836.813782 218.537598,837.585754 209.211182,840.410400 
	C196.669540,844.208923 183.778030,841.383972 171.160950,839.135315 
	C167.226822,838.434143 163.942612,835.772888 162.480576,832.152893 
	C159.748825,825.389099 154.453873,821.639771 148.328537,818.780029 
	C140.896240,815.310059 134.523041,810.152771 127.411560,806.161438 
	C118.498451,801.158997 117.710205,791.956909 116.988991,783.092712 
	C116.448196,776.445923 115.800056,769.867859 114.391411,763.320618 
	C110.849777,746.859436 102.738434,733.058716 91.106499,721.057373 
	C88.603119,718.474426 86.535034,715.233154 85.052559,711.941101 
	C80.363548,701.528442 74.116806,691.770691 72.553688,680.026367 
	C71.786263,674.260437 67.605476,669.946899 63.480072,665.989685 
	C60.759777,663.380310 58.631649,660.495239 58.042553,656.685425 
	C56.928608,649.481201 58.001431,647.596924 64.902321,645.200928 
	C67.592522,644.266907 69.930466,643.160950 69.973091,639.873474 
	C70.136971,627.235779 76.152008,628.703796 84.761383,630.057129 
	C85.391624,630.156189 86.028206,630.214966 87.067215,630.342041 
	C88.949120,625.564087 79.641762,619.698975 88.795441,616.028442 
	C88.328598,620.316467 91.261497,623.865845 91.742058,628.194580 
	C91.961456,630.170837 94.171806,632.384155 96.273476,632.245605 
	C100.734604,631.951904 104.753532,634.695496 107.395744,636.459717 
	C112.274673,639.717346 116.771797,638.167236 121.392677,638.753662 
	C123.077194,638.967468 124.680901,638.420044 126.098328,637.601562 
	C128.158081,638.023865 126.656380,641.753906 129.809143,641.104614 
	C130.001099,640.984924 129.978561,640.943115 129.978561,640.943115 
	C129.440781,643.717407 129.397141,646.302429 132.897430,647.747681 
	C134.209747,646.708191 135.786163,645.243896 137.857300,645.782227 
	C142.442459,646.973694 145.332825,643.039795 149.241409,642.081848 
	C151.509109,641.525940 150.744003,638.863953 149.915314,636.909241 
	C147.827469,631.984497 148.739670,630.258240 153.902740,629.733826 
	C157.542603,629.364197 160.793884,627.452332 163.994919,626.270081 
	C169.794846,624.128052 176.726135,625.202148 181.585983,620.407410 
	C181.996613,620.002319 182.881454,619.766663 183.455215,619.886597 
	C188.946930,621.034546 192.798279,615.718384 198.390991,616.342651 
	C201.289459,616.666199 202.844147,609.406921 201.276352,605.034668 
	C199.607498,600.380615 196.648346,596.289001 196.417953,590.960083 
	C196.262375,587.361755 192.691925,587.643005 190.752518,589.269836 
	C188.411728,591.233337 186.050735,591.475403 183.410233,591.244385 
	C179.453857,590.898438 176.374603,593.658081 172.989502,594.789673 
	C167.051376,596.774597 160.699097,597.443237 154.973495,600.279053 
	C151.579681,601.960022 147.548035,601.727783 143.954773,603.891174 
	C141.347687,605.460876 138.498611,601.047485 138.517105,599.472717 
	C138.590210,593.243286 134.941727,587.772278 135.627670,581.461365 
	C136.045532,577.616943 137.786118,576.297119 141.299744,576.016541 
	C147.257584,575.540894 153.369827,576.866760 159.170166,574.900818 
	C163.600296,573.399292 167.993652,572.251953 172.711502,572.655945 
	C174.274246,572.789734 175.654007,572.045288 176.845093,571.119568 
	C186.253677,563.807068 192.483688,554.542664 191.497192,542.286926 
	C190.954956,535.550476 188.532593,528.924194 185.497803,522.726685 
	C184.440033,520.566528 181.721817,520.674683 180.748962,521.640991 
	C178.073471,524.298462 174.774033,524.244812 171.596161,524.731567 
	C165.385147,525.683105 166.032623,530.498718 165.878830,535.151062 
	C163.587982,531.880066 162.311768,528.815735 163.961563,525.246765 
	C165.602951,521.695984 164.919800,519.185852 160.941696,517.885132 
	C160.063995,517.598145 159.382065,516.712463 157.697784,515.381714 
	C164.781403,514.781799 170.909561,514.018860 177.055191,513.833313 
	C180.774902,513.721008 184.518997,512.436279 187.193176,510.914215 
	C189.710800,509.481232 190.547867,504.694794 191.588303,501.223053 
	C192.178711,499.252838 191.928101,497.309998 193.592758,495.418854 
	C196.261414,492.387115 194.696945,487.714508 191.528915,485.128571 
	C184.121155,479.081940 175.454391,474.657562 168.851761,467.633209 
	C167.524475,466.221161 165.694443,466.718353 164.340881,465.378479 
	C164.434708,461.453613 166.212128,459.665802 170.468399,459.770233 
	C178.627243,459.970459 186.812881,459.447479 194.954147,459.868103 
	C200.424454,460.150757 204.673447,458.977753 205.739700,453.270996 
	C206.627792,448.517853 208.369080,444.099426 209.652634,439.510071 
	C211.354111,433.426422 207.238464,430.722839 202.759979,428.382324 
	C198.353806,426.079559 195.041809,422.379120 191.139191,419.439209 
	C185.318451,415.054352 179.629593,410.400116 173.368042,406.745575 
	C171.161636,405.457825 169.818604,403.492767 168.060760,402.055756 
	C162.211487,397.274017 155.225098,394.019958 149.902679,388.728088 
	C146.757431,385.600922 143.989929,385.702545 140.643356,387.411469 
	C139.791672,387.846405 139.219040,388.861938 138.042999,388.336090 
	C137.579407,383.292236 141.275452,379.420197 146.367828,380.257172 
	C150.297485,380.902985 151.971207,380.645172 153.068848,375.936310 
	C154.067841,371.650635 155.188141,366.790009 159.855896,363.644409 
	C162.352875,361.961700 162.898270,357.554230 164.658432,354.573639 
	C169.189835,346.900299 174.472290,339.856171 182.324677,335.176575 
	C183.131287,334.695892 183.062103,333.229401 185.138168,333.287689 
	C184.024292,338.187592 180.162781,341.149048 177.649429,344.769989 
	C175.849182,347.363586 173.729523,349.912750 170.713272,351.638489 
	C167.875076,353.262390 167.878586,356.939911 167.379745,359.713013 
	C166.384705,365.244629 162.174332,369.809021 163.180435,375.991486 
	C163.709167,379.240570 164.511581,381.106445 167.957581,380.689484 
	C170.857819,380.338593 172.979004,382.248810 175.495468,382.988190 
	C182.200912,384.958435 183.543961,384.114594 183.780045,375.712494 
	C182.767776,380.170258 180.857391,381.108276 178.007233,380.326385 
	C176.887909,380.019318 175.737106,379.779572 174.584778,379.647675 
	C164.869141,378.535492 163.354248,373.779999 168.538620,364.375977 
	C169.963974,361.790497 170.960114,358.341858 172.699829,356.756104 
	C177.830811,352.079437 179.543777,345.095184 184.664276,340.654297 
	C189.560776,336.407715 194.494919,332.172485 201.181793,330.851624 
	C210.668350,328.977753 219.202560,331.465149 226.458389,337.348755 
	C238.456253,347.077576 250.040756,357.316223 262.267334,367.738892 
	C258.175354,372.722778 254.538010,377.636810 250.376785,382.057709 
	C247.409668,385.210022 245.713394,380.229218 243.105133,380.143311 
	C242.733719,395.443298 233.861755,407.673676 219.540573,413.219696 
	C210.733185,416.630402 203.402222,413.949005 197.173706,407.918427 
	C191.129089,402.065979 188.959229,394.744537 191.589508,386.423767 
	C194.166992,378.269958 199.541321,371.900787 204.954178,365.551971 
	C207.517715,362.545105 209.991028,359.461304 212.762085,356.100891 
	C208.798248,352.791962 204.792450,351.207397 200.177322,353.119080 
	C191.318298,356.788666 187.158936,364.173370 184.531281,372.643738 
	C184.884125,372.878784 185.236969,373.113831 185.589813,373.348877 
	C186.618347,371.264160 187.650406,369.181152 188.674744,367.094360 
	C191.339767,361.665283 199.546677,353.070374 205.785156,354.710815 
	C206.868408,354.995636 208.222458,354.569550 208.904922,355.813171 
	C209.775253,357.399139 208.403870,358.168945 207.584396,359.161255 
	C203.257523,364.400726 198.801163,369.543335 194.686829,374.945831 
	C188.926956,382.509094 188.352982,391.410187 189.553360,400.316437 
	C190.509155,407.407990 201.305542,415.835114 208.490372,415.718170 
	C214.833313,415.614929 221.668091,417.572845 227.139893,412.763855 
	C231.033798,409.341644 236.430161,407.241943 237.869736,401.463196 
	C238.223434,400.043427 239.325562,399.607300 240.535004,399.806519 
	C242.078949,400.060822 242.071884,401.377655 241.852188,402.566589 
	C241.402512,405.000244 239.953415,406.900574 237.970459,408.179321 
	C235.675125,409.659607 233.976303,411.544617 232.356049,413.718201 
	C225.865936,422.424774 225.279770,429.951263 231.559692,438.631165 
	C235.731766,444.397736 234.956314,450.180420 233.249756,456.234985 
	C231.804993,461.360657 230.133804,466.422546 228.687088,471.547699 
	C227.422531,476.027679 227.543747,480.434357 229.885651,484.624207 
	C232.304077,488.950958 233.365463,493.586578 233.083267,498.555298 
	C232.806717,503.424591 233.688538,508.193695 234.696823,512.918396 
	C236.579681,521.741089 237.532043,530.674744 237.977676,539.661987 
	C238.175659,543.654419 239.695419,546.964233 241.827576,550.278015 
	C254.290680,569.648438 269.497528,586.774902 285.067993,603.614014 
	C286.333649,604.982788 287.462250,606.473877 287.865570,608.283020 
	C289.649323,616.284912 293.881378,623.434265 295.705688,631.445190 
	C297.407379,638.917786 301.616119,645.176636 306.568268,650.903259 
	C309.027832,653.747498 310.683319,656.950439 311.654541,660.533691 
	C313.919861,668.891296 316.117004,677.267395 318.403687,685.619141 
	C320.421570,692.989136 320.527649,700.471619 319.257080,707.901855 
	C318.277130,713.632874 319.295471,719.560303 317.138550,725.169983 
	C315.704071,728.900818 314.143250,732.110168 309.734161,733.126282 
	C306.330933,733.910583 304.931976,737.047119 303.377716,739.791260 
	C301.996277,742.230164 300.900604,744.862549 297.330383,746.764343 
	C297.369965,730.377197 286.402679,720.945251 276.008636,709.584656 
	C275.605408,712.821411 277.077576,713.586914 278.014038,714.506409 
	C284.255432,720.634094 289.176239,727.712891 293.172058,735.449951 
	C296.163361,741.241943 294.789642,745.280945 289.022125,748.069641 
	C279.859741,752.499939 279.723450,752.569397 275.169250,743.632690 
	C270.371399,734.217712 263.920349,726.384399 254.837921,720.848572 
	C253.989792,720.331604 253.138702,719.752808 252.208557,719.448730 
	C248.089096,718.101868 243.874710,716.390442 240.005035,719.965393 
	C236.076675,723.594421 237.981949,727.535645 239.970825,731.998657 
	C245.507568,739.930908 250.677551,747.280090 255.842300,754.632996 
	C265.401093,768.241516 266.395844,782.533508 252.654938,794.162781 
	C252.029831,794.691833 251.550674,795.393372 250.652069,796.117310 
	C244.439697,799.322754 238.203293,801.220581 231.597473,800.101624 
	C208.984680,796.271118 194.913422,781.605286 184.562637,762.392029 
	C183.695923,760.783203 183.453720,758.989685 185.299072,758.022705 
	C190.224899,755.441528 194.526276,751.660095 199.927032,749.992432 
	C203.156815,753.352112 203.882095,757.962463 207.152252,761.316528 
	C211.312454,768.821899 217.093201,774.182617 224.529617,777.668274 
	C229.405533,779.953674 234.650665,779.093811 237.447784,775.974060 
	C241.242142,771.741943 239.102493,767.854126 236.623596,764.202820 
	C232.235001,757.738464 227.625046,751.423706 223.055984,745.083618 
	C222.532852,744.357788 221.871780,743.352417 220.276367,744.368835 
	C224.135345,750.009644 227.305298,756.091736 232.052704,761.064209 
	C234.036179,763.141724 235.607056,765.458862 236.772064,767.994995 
	C238.458160,771.665344 236.293060,776.621399 232.862305,777.222290 
	C227.507629,778.160278 223.527100,775.611023 219.492386,772.368591 
	C215.078079,768.821167 211.373886,764.583130 206.964172,760.562256 
	C206.190674,756.558655 204.530838,753.488159 202.364243,750.452515 
	C200.261383,747.506165 197.404617,747.736206 195.339325,748.809021 
	C191.337677,750.887512 187.418213,753.259766 183.626831,755.697571 
	C181.220093,757.245056 179.856689,760.792114 182.612411,763.366272 
	C184.320877,764.962036 185.300064,766.949707 185.891830,768.729065 
	C189.378296,779.211975 197.966095,785.680908 205.809143,791.862549 
	C212.704269,797.297180 221.240509,800.973511 230.309906,803.559937 
	C236.751221,805.396973 240.445953,803.005981 244.994995,800.815247 
	C247.266418,799.721375 251.002045,800.037842 251.354584,795.953003 
	C256.325989,795.116516 262.292725,788.202637 263.820709,783.253906 
	C265.553040,777.643372 265.552979,772.638489 264.019379,766.757385 
	C262.269196,760.045593 258.140869,754.920471 255.063797,749.226990 
	C252.656906,744.773560 248.229721,741.258911 245.216385,736.838501 
	C243.955017,734.988159 242.835617,732.381104 239.971939,732.020569 
M208.390747,712.675903 
	C211.593475,712.360168 212.437622,714.171082 212.313202,716.947449 
	C212.037994,723.089233 212.233780,729.161133 214.341202,735.065674 
	C215.327957,737.830383 216.711304,740.062012 219.555222,741.255798 
	C218.853745,739.021240 217.707626,737.066467 216.679764,735.051270 
	C208.849442,719.698975 216.348404,704.292847 231.989044,698.380432 
	C242.602371,694.368408 252.630447,697.406189 262.143646,702.518494 
	C265.838776,704.504211 269.337311,706.855774 273.289246,709.262207 
	C271.082092,703.688843 258.844971,697.994690 254.532150,697.391846 
	C252.723068,697.138977 251.242737,696.903320 249.643387,695.566895 
	C245.596024,692.184998 236.896744,692.697510 232.794434,696.240906 
	C231.595291,697.276611 230.441544,697.438843 229.160995,696.932922 
	C227.583542,696.309692 227.463669,694.699341 227.913864,693.528931 
	C231.267212,684.810852 229.317642,675.784424 229.614197,666.896118 
	C229.657562,665.596558 229.721970,664.058411 229.115662,663.014648 
	C224.565689,655.181702 220.542313,646.964661 214.133957,640.391602 
	C212.693100,638.913757 211.482040,637.113586 209.248993,636.337280 
	C204.800308,634.790771 200.141342,633.592285 196.443420,630.410339 
	C195.180023,629.323242 193.681824,629.492981 192.201859,629.318909 
	C182.680511,628.198547 174.552734,631.447327 166.207108,635.883545 
	C152.496277,643.171448 147.003189,654.923645 145.397980,669.265991 
	C144.855484,674.112976 146.101257,678.755920 147.612839,683.625061 
	C150.598862,693.243591 154.586655,701.761902 162.413010,708.262024 
	C170.665665,715.116211 180.080505,719.288696 190.822052,719.591980 
	C196.002609,719.738220 200.507904,715.857544 205.932449,716.013550 
	C207.387268,716.055359 207.300751,714.445068 207.157349,712.988037 
	C207.157349,712.988037 207.574478,712.743164 208.390747,712.675903 
M230.227142,381.352753 
	C231.868835,374.226257 230.494675,369.730927 225.911346,366.834839 
	C224.528778,365.961243 223.283691,365.302887 222.008545,366.858459 
	C217.938141,371.823883 212.883652,376.016174 210.290878,382.141510 
	C208.732498,385.823120 209.285751,388.862732 212.333725,391.499939 
	C215.443573,394.190643 218.565216,393.953583 221.914719,391.946442 
	C225.806915,389.614044 228.119354,386.077484 230.227142,381.352753 
M202.497681,775.021118 
	C202.046997,771.568237 200.415543,768.747925 197.478882,766.945068 
	C195.919113,765.987427 193.788391,765.401794 193.398376,768.323914 
	C192.901566,772.046143 198.220947,776.354248 202.497681,775.021118 
z"/>
<path fill="#000000" opacity="1.000000" stroke="none" 
	d="
M477.035431,219.966202 
	C475.596741,220.373978 473.582458,220.638519 473.578308,222.344452 
	C473.560364,229.666245 467.981995,235.519714 468.298370,242.820847 
	C468.421906,245.672028 465.844574,246.804825 465.146301,249.302994 
	C462.549835,258.592041 460.242401,268.006653 455.876465,276.753357 
	C454.554871,279.400970 454.126282,282.730652 453.646393,285.601837 
	C452.905914,290.032257 449.494720,293.449066 449.861115,298.290192 
	C450.008301,300.234619 447.671906,302.296295 446.748840,304.609711 
	C444.701752,309.740295 445.027008,314.463989 447.012512,320.235718 
	C438.500854,317.672760 430.859894,320.146759 423.107849,321.743927 
	C420.448792,322.291779 418.351105,320.728394 416.395477,319.052887 
	C409.421295,313.077759 402.959442,306.761749 398.929901,298.232208 
	C396.908081,293.952576 392.991577,291.487854 388.171417,291.044067 
	C383.987000,290.658813 380.015289,289.474335 375.991272,288.414825 
	C371.282410,287.174957 367.000366,287.882416 364.102600,292.174683 
	C362.649353,294.327301 361.051849,294.475342 359.003937,293.494629 
	C357.458008,292.754303 355.515533,291.786255 354.467682,293.490479 
	C351.473358,298.360504 346.189362,300.074097 341.977295,303.252411 
	C336.597656,307.311768 330.646606,307.348816 324.461029,306.027863 
	C322.526917,305.614838 321.741577,304.253113 321.866791,302.361664 
	C321.994476,300.433197 323.282379,299.888641 324.980988,299.937653 
	C327.982269,300.024261 330.678345,299.928955 333.305450,297.647614 
	C335.133270,296.060364 338.156311,295.900604 338.658539,299.824005 
	C339.844238,300.332825 340.675781,299.532013 341.226898,298.800140 
	C345.213501,293.506348 351.085754,292.293030 357.051453,290.766541 
	C360.597870,289.859100 364.001862,288.215057 367.580902,287.112213 
	C370.520721,286.206329 371.693207,282.428192 370.468781,279.919617 
	C368.005859,274.873535 366.870026,269.426270 363.707153,264.433289 
	C359.387909,257.614746 352.886108,254.432495 347.076965,249.962433 
	C345.774323,248.960068 344.203644,249.329086 342.731293,249.260254 
	C339.636078,249.115524 336.584656,249.577576 333.903168,246.940277 
	C332.428253,245.489639 329.469788,245.548874 327.846527,247.079254 
	C325.468323,249.321396 322.813965,249.011078 320.014923,249.286163 
	C310.744019,250.197266 302.742004,253.390457 297.331848,261.723907 
	C295.593262,264.401917 293.216583,266.944214 291.466888,269.542450 
	C288.857605,273.417145 287.817810,278.387573 286.350891,282.968872 
	C285.915833,284.327515 286.495148,285.978363 286.259125,287.438660 
	C284.765015,296.683472 289.633179,304.465790 292.270935,312.686890 
	C293.378815,316.139832 296.454376,318.961426 299.157349,322.814026 
	C293.801392,323.493439 290.668945,327.496490 286.871521,330.679291 
	C281.446320,335.226440 289.196411,340.047028 286.059662,345.594086 
	C283.847900,340.833832 280.062622,338.639557 278.297485,334.010254 
	C276.267914,328.687439 271.676331,324.303741 268.014954,319.655975 
	C266.020111,317.123718 264.737244,310.531555 265.573975,307.248199 
	C266.097229,305.194885 265.887451,302.954742 266.002808,300.394897 
	C265.998993,299.991394 265.972809,300.014862 265.972809,300.014862 
	C266.687683,300.335724 267.191650,302.426758 268.033020,300.886017 
	C269.423309,298.340088 271.806366,297.050629 273.710419,295.161499 
	C277.820740,291.083252 277.947906,288.112335 274.187561,283.504242 
	C271.696228,280.451294 269.467255,277.294006 267.493225,273.874695 
	C265.851105,271.030273 263.670105,270.074951 260.709137,273.040100 
	C255.731369,278.024872 249.919952,282.271820 247.927536,290.387268 
	C243.388901,285.100708 239.738129,287.628021 236.086884,290.569153 
	C233.021667,293.038239 230.002930,295.531036 226.731110,297.782379 
	C223.710129,299.861115 224.524338,303.959106 226.465012,306.711823 
	C232.920654,315.868713 239.089172,325.240234 245.448502,334.448242 
	C250.009476,341.052338 255.222610,347.494293 258.394287,355.049744 
	C259.158295,356.869659 263.223419,358.125610 260.218811,360.607239 
	C257.388275,362.945099 255.202164,359.097565 254.244186,357.892609 
	C249.381073,351.775757 242.761108,347.602692 236.834747,343.058990 
	C231.814484,339.209991 226.927322,334.821777 220.893845,331.693146 
	C212.599030,327.391846 204.618164,330.662659 196.681793,329.049561 
	C194.002869,328.505035 191.952011,333.940063 187.643158,331.603973 
	C189.013214,328.164062 192.689056,327.342468 195.357239,325.487701 
	C198.385132,323.382904 200.904449,321.513702 197.940079,317.561890 
	C197.480194,316.948822 197.127777,315.880890 197.330292,315.204285 
	C198.970703,309.723785 197.031845,305.250854 194.080551,300.714722 
	C191.815155,297.232819 193.936172,294.328156 196.813232,292.158173 
	C202.366089,287.970093 208.794373,288.420105 215.066559,289.398590 
	C218.300629,289.903107 220.723404,289.496063 223.401535,287.591400 
	C227.312439,284.809998 231.431931,282.344818 236.272964,281.151337 
	C239.105621,280.453003 241.870499,278.993591 243.571991,276.225006 
	C243.981277,275.559021 244.791702,274.706848 245.440109,274.687347 
	C252.063477,274.488129 256.431061,269.431732 262.043610,267.209930 
	C266.671021,265.378143 268.553009,262.434937 268.845612,257.882202 
	C268.994934,255.559158 269.018951,253.216400 269.359558,250.921158 
	C269.612823,249.214737 270.546967,247.747116 272.446075,247.398056 
	C274.332062,247.051407 275.776123,248.015076 276.587128,249.561859 
	C277.740631,251.761795 278.658966,254.091461 279.586029,256.402496 
	C282.533417,263.750092 288.311951,264.924988 294.031952,259.602875 
	C301.685791,252.481461 309.256073,245.133484 320.356079,243.556137 
	C322.190338,243.295486 323.689972,242.089386 324.595764,240.335922 
	C330.380707,229.137024 348.339417,225.786774 356.799316,231.292984 
	C362.227753,234.826141 367.806793,235.341232 373.973602,234.379852 
	C382.433441,233.061005 390.783478,233.968796 398.090881,238.627304 
	C405.818848,243.553894 413.023621,241.538391 420.284790,238.104401 
	C424.388031,236.163849 427.686401,233.086060 430.795166,229.772156 
	C434.094177,226.255447 437.330322,222.654861 441.263031,219.778748 
	C445.203369,216.897064 449.251160,215.550140 454.338318,216.646423 
	C461.387299,218.165451 465.445801,215.083023 468.254822,208.463226 
	C472.048340,199.523300 476.719177,191.102448 486.202393,186.689606 
	C488.130768,185.792252 490.043365,184.507431 491.473511,182.951172 
	C499.698120,174.001343 510.176514,168.658249 521.090637,163.926971 
	C524.753662,162.339035 528.247253,162.178589 532.231445,163.089417 
	C543.222778,165.602158 553.150208,170.781891 563.525513,174.831787 
	C564.603943,175.252762 565.787720,175.709427 566.587463,176.492004 
	C575.236938,184.955856 586.186890,190.146194 595.827209,197.185410 
	C604.292908,203.366943 610.647949,211.552734 616.105957,220.376129 
	C625.654114,235.811600 638.757690,248.190979 650.937988,261.360168 
	C653.071594,263.667023 656.088074,265.045044 659.129761,266.011108 
	C667.851135,268.781189 674.573303,274.133026 680.272217,281.226868 
	C684.634460,286.656738 689.231506,292.071381 695.440918,295.565277 
	C710.036926,303.778198 720.319153,315.913391 727.837769,330.628418 
	C732.306458,339.374390 736.733521,348.141632 741.214539,356.881256 
	C743.202881,360.759186 745.668518,364.308746 748.844543,367.326263 
	C751.553040,369.899567 753.859131,372.866638 754.727600,376.472565 
	C757.267334,387.017792 762.056396,396.836334 764.422791,407.441376 
	C765.547363,412.481384 764.862122,416.465942 760.718079,419.949341 
	C756.822510,423.223877 752.505127,426.511719 754.795105,432.916229 
	C755.347412,434.460999 754.785645,436.611877 752.531677,437.347626 
	C750.440002,436.540039 750.390564,434.484283 749.806396,432.841003 
	C747.582031,426.583282 739.234741,423.870453 734.078857,427.938232 
	C731.024170,430.348236 731.864624,433.531372 732.940918,436.632294 
	C733.837463,439.215363 736.087341,441.357086 735.676575,444.530762 
	C732.208740,445.293335 731.380920,442.073639 729.890930,440.585968 
	C722.265198,432.972107 711.105164,433.610260 706.978088,443.288971 
	C704.809387,448.375031 705.012512,455.070068 707.358337,460.734711 
	C709.413513,465.697693 709.575195,466.075073 704.804688,469.487854 
	C700.969421,462.596771 700.604919,454.693542 698.441772,447.301666 
	C697.542603,444.228943 694.341125,442.857727 691.562439,445.187805 
	C689.206116,447.163635 686.837097,447.230682 684.177429,447.300201 
	C678.937561,447.437073 674.481140,450.527039 669.273682,451.314392 
	C666.654297,451.710419 663.903564,453.396393 660.878479,453.326691 
	C660.712341,453.322845 660.493042,453.274658 660.386719,453.358704 
	C654.996399,457.622009 647.563965,455.903412 641.989868,459.633881 
	C641.593567,459.899078 641.024048,460.206024 640.620667,460.114838 
	C634.773682,458.792877 630.351440,463.840820 624.536621,463.499664 
	C620.089355,463.238739 617.294495,470.478271 620.207520,474.354401 
	C621.440063,475.994385 620.645386,477.325195 621.326416,479.006592 
	C615.264771,476.556549 611.565979,470.153748 612.980103,464.725311 
	C613.817200,461.511780 616.346130,459.942383 619.617371,459.830902 
	C627.062439,459.577148 632.848022,455.418884 639.065918,452.042999 
	C647.515625,447.455322 654.908630,441.177795 663.849365,437.332764 
	C668.485352,435.339050 672.678467,432.151581 676.749817,429.077209 
	C678.838745,427.499847 681.339844,427.381897 683.533081,425.536591 
	C690.023071,420.076172 691.077515,415.779846 685.066528,409.968597 
	C683.567566,408.519409 682.496216,406.931427 681.781128,405.315308 
	C680.280579,401.923584 679.327942,398.503052 674.473633,398.954224 
	C673.185730,399.073883 672.708435,397.489899 672.772827,396.291534 
	C673.322876,386.055389 667.439819,378.689758 661.792847,371.148285 
	C658.158203,366.294250 653.527039,363.509674 648.017151,360.751160 
	C639.295898,356.384827 630.560486,357.697845 622.218201,358.739807 
	C616.459473,359.459106 610.990234,364.168274 605.931213,368.038269 
	C600.423950,372.251190 597.793152,377.922089 596.113342,384.484222 
	C595.112854,388.392700 593.011414,391.835632 593.214722,396.254211 
	C593.788147,408.716431 598.882874,418.962463 607.554382,427.546143 
	C609.455200,429.427734 610.176331,432.624146 613.854248,432.632446 
	C606.722900,436.028259 599.380981,434.015869 595.123535,428.485474 
	C588.849792,420.335938 585.920959,411.073364 585.723206,400.943817 
	C585.656189,397.511993 584.613831,396.123932 581.093384,396.289581 
	C576.604614,396.500702 572.091919,396.452057 567.599976,396.264313 
	C564.335144,396.127930 563.211792,397.451111 563.202087,400.648285 
	C563.184998,406.266174 563.865479,411.942078 562.443787,417.517822 
	C555.475830,415.762329 554.661255,416.171936 551.961670,423.144775 
	C551.061462,425.469849 550.458069,427.908051 549.623657,430.260712 
	C547.961792,434.946106 544.813049,437.751160 539.656555,437.938446 
	C536.459595,438.054474 534.171082,436.497742 532.771912,433.814606 
	C531.343201,431.074768 531.781982,428.418762 533.648743,425.863129 
	C535.325806,423.567169 539.466858,422.224365 538.150635,418.776031 
	C536.944275,415.615356 533.013245,417.548737 530.453308,416.555389 
	C526.309631,414.947449 522.886536,412.355774 520.050903,409.017090 
	C518.004700,406.607819 516.163208,404.021057 514.286804,401.471924 
	C510.271118,396.016510 505.533325,391.824646 498.953644,389.247284 
	C488.498535,385.151917 480.115692,378.086639 474.050293,368.474731 
	C470.786469,363.302551 471.391052,360.152557 476.483856,356.694550 
	C480.161530,354.197418 484.493103,352.510071 486.105988,347.710541 
	C487.431213,343.767181 487.776581,340.032623 485.893005,336.117798 
	C484.474976,333.170624 485.369995,331.633575 488.966248,332.386444 
	C494.874725,333.623505 500.318665,336.398224 506.020020,337.912659 
	C511.545776,339.380432 515.911926,342.547485 520.925232,344.590271 
	C523.555298,345.661987 524.862305,347.660217 526.365417,349.393219 
	C528.610840,351.981995 531.770569,353.023529 534.442627,354.355255 
	C537.906555,356.081635 540.585693,353.299255 542.767090,350.061798 
	C548.801758,341.105652 555.510925,332.592499 562.835144,324.681915 
	C570.922668,315.946869 584.212463,317.368591 590.584839,327.124298 
	C590.992371,327.748169 590.888611,328.706055 591.023499,329.513184 
	C589.666443,330.843536 588.192139,328.152191 586.986511,329.914520 
	C586.948059,330.111847 586.723633,330.549164 586.851440,330.714935 
	C588.796509,333.237518 588.862854,335.314209 586.853760,338.228760 
	C580.485413,347.467133 573.891479,356.492767 566.112854,364.598145 
	C561.698669,369.197723 560.099915,374.969025 563.649536,378.596252 
	C566.479126,381.487701 569.220215,384.949310 573.277954,386.515350 
	C574.186279,386.865936 575.149109,386.885742 575.898010,387.746735 
	C578.797180,391.079773 581.544312,390.450531 584.085632,387.242401 
	C590.654419,378.949860 597.297546,370.714600 603.759583,362.339691 
	C607.422913,357.592010 612.312378,353.828705 614.715942,348.051849 
	C617.918640,340.353851 620.089233,332.955811 617.396667,324.267975 
	C615.754944,318.970642 613.901245,314.003235 610.257141,310.178162 
	C605.884888,305.588898 600.609436,301.990723 594.243042,300.165192 
	C591.501404,299.379089 589.383911,296.769989 585.822876,297.213715 
	C586.150330,287.771576 577.599915,286.177643 572.638794,281.586304 
	C570.999268,280.068970 569.642944,275.365814 565.641418,278.413239 
	C563.438965,280.090546 561.507446,281.926086 559.815063,284.321991 
	C554.970764,291.180115 549.510559,297.605133 544.252502,304.168396 
	C540.438416,308.929260 536.549744,313.630341 532.717285,318.376678 
	C531.479980,319.909027 530.381592,321.576874 528.039795,322.323700 
	C525.143982,318.463837 520.908508,317.408234 516.472961,315.731689 
	C511.728577,313.938354 506.057068,314.450867 501.696777,310.282013 
	C499.346558,308.034943 494.472626,308.070312 490.783875,306.705750 
	C488.238068,305.763916 485.602631,303.953674 483.288330,303.815765 
	C476.584961,303.416199 477.583527,299.297913 478.006714,294.594788 
	C478.162415,293.919495 478.263062,293.770203 478.672485,293.574646 
	C481.725250,292.613373 479.882538,289.473541 481.750916,287.962585 
	C485.109192,287.556519 488.239227,288.061157 491.676636,289.407349 
	C496.039490,291.115997 500.764618,292.062805 505.295105,293.518860 
	C507.515411,294.232452 509.655731,294.375153 511.964874,295.637024 
	C515.260559,297.437927 519.568542,297.294830 523.099609,299.489899 
	C524.430969,300.317535 526.367188,299.329102 526.608704,297.111847 
	C526.733582,295.965973 527.172852,295.005280 527.765259,293.952698 
	C530.053467,289.887390 531.829102,285.601837 531.639404,280.759552 
	C531.543030,278.299927 530.232605,276.448792 528.164917,275.724976 
	C523.405701,274.058960 518.569031,272.072479 513.632690,271.607208 
	C508.761444,271.148010 505.000031,267.962189 500.089752,267.536102 
	C498.058685,267.359833 495.650391,265.209656 492.914307,265.188354 
	C491.185211,265.174896 490.988739,263.862427 490.664276,262.473297 
	C489.492096,257.455200 493.896149,254.084564 494.414001,249.523010 
	C494.546875,248.352417 497.214111,248.197968 497.943481,248.888321 
	C501.554626,252.306168 506.749817,251.538040 510.572296,253.953415 
	C513.736084,255.952606 516.745911,255.966492 520.028198,254.997803 
	C520.007812,254.987183 519.967346,254.965607 520.058655,255.319916 
	C524.301697,259.444794 529.633972,260.379395 534.798523,261.592987 
	C536.806396,262.064850 538.936218,261.350342 540.541443,263.617035 
	C541.788879,265.378510 543.593079,264.712311 544.413086,262.782928 
	C546.167603,258.654663 547.951538,254.522812 549.383484,250.277756 
	C551.062744,245.299622 549.406372,239.287750 546.506104,239.701248 
	C540.833740,240.509933 536.425720,237.147293 531.524231,235.886780 
	C527.562744,234.867981 522.948730,234.563202 519.610657,232.551254 
	C515.246338,229.920715 510.157043,229.783783 505.778168,226.973755 
	C503.382233,225.436234 499.861603,223.709488 496.351593,223.333099 
	C490.990051,222.758163 486.099976,220.594284 481.278168,218.292816 
	C479.282318,217.340195 477.384552,216.886826 476.992340,220.004669 
	C477.006683,219.992065 477.035431,219.966202 477.035431,219.966202 
z"/>
<path fill="#000000" opacity="1.000000" stroke="none" 
	d="
M641.984680,728.979736 
	C643.700317,729.374634 645.204102,728.399292 645.927429,727.311401 
	C649.377197,722.123291 653.299805,717.368774 654.998047,710.934509 
	C656.158203,706.539001 657.829468,702.438599 657.740967,697.726807 
	C657.551941,687.659851 654.538574,678.740417 647.997131,671.048157 
	C646.862244,669.713623 646.758972,668.071655 646.615662,666.173828 
	C649.447571,665.321228 652.118591,664.681458 654.902039,666.557495 
	C655.773682,667.144958 657.498291,667.591553 658.195312,667.133362 
	C663.282654,663.789856 669.254700,665.402222 674.653870,663.930420 
	C680.794067,662.256592 687.200317,667.381042 686.889221,673.867188 
	C686.068604,690.977478 693.069641,704.674805 705.418030,715.805176 
	C710.713867,720.578735 711.662659,725.650574 710.156555,732.350891 
	C706.987183,746.451294 697.178040,756.037109 688.222168,766.245422 
	C686.105652,768.657898 683.065186,769.849548 680.009155,770.815674 
	C666.154602,775.195862 653.243713,781.872375 639.838074,787.345581 
	C632.874268,790.188660 625.507629,791.685242 618.311157,793.734497 
	C615.223083,794.613831 611.990234,794.247864 609.255554,792.153137 
	C605.721069,789.445923 601.741516,789.450562 597.820129,790.691589 
	C590.550232,792.992310 582.968262,792.374023 575.573975,793.433960 
	C574.514526,793.585815 573.611023,793.165588 573.081909,791.615234 
	C574.726318,789.354309 577.068604,787.263733 578.412231,784.458069 
	C579.008850,783.212280 580.330139,782.351318 581.628845,782.292297 
	C590.642517,781.883240 595.556396,774.293518 602.541748,770.359131 
	C604.572449,769.215393 604.334717,766.358032 602.666992,764.650085 
	C595.704468,757.519348 591.756348,748.311646 585.845093,740.433594 
	C582.402527,735.845581 578.441223,731.704041 575.030273,727.095093 
	C573.276611,724.725525 571.545959,722.457153 570.474121,719.748352 
	C568.052917,713.629150 563.584839,708.791931 559.180969,704.359802 
	C555.391663,700.546082 552.755310,705.741089 550.148560,708.094055 
	C547.390808,710.583313 544.360413,712.126953 540.435120,711.834229 
	C544.956726,708.203430 547.317810,702.695007 552.196533,699.881592 
	C556.917908,697.158997 560.907227,693.698303 563.936646,689.279480 
	C570.108643,680.276611 577.732178,672.370483 582.974548,662.624146 
	C587.041870,655.062378 582.853943,649.117004 578.009460,644.720825 
	C576.480652,643.333557 572.545166,643.157898 574.139709,640.018616 
	C575.599976,637.143616 578.791382,635.517639 582.218445,636.230469 
	C586.766602,637.176575 591.367249,638.210938 595.675293,639.897156 
	C603.623108,643.007996 605.061890,642.729309 609.266052,635.460266 
	C609.751343,634.621216 609.927063,633.538208 611.210938,633.156128 
	C614.028503,633.539612 614.256653,635.935730 614.157104,638.008545 
	C614.004761,641.178772 615.650818,643.763550 616.414490,646.614685 
	C617.044922,648.968384 624.022522,649.662903 627.092896,647.840698 
	C627.935486,647.340576 628.608459,646.492493 629.492981,646.134949 
	C637.309998,642.974915 638.231689,641.059448 635.547729,633.227173 
	C633.523132,627.319336 638.708984,614.539734 645.228394,611.170166 
	C647.142273,610.180969 648.580322,606.206848 651.297729,608.470764 
	C653.692810,610.466248 651.457092,613.101257 650.489441,615.294250 
	C646.391968,624.580994 644.365601,634.615845 639.937927,643.828918 
	C638.700684,646.403442 637.528442,649.503723 637.278503,652.668396 
	C636.873047,657.802673 631.785217,659.917969 627.094910,657.487732 
	C620.024719,653.824585 612.683899,653.905518 605.571350,657.506104 
	C603.015869,658.799866 600.191101,658.062073 597.551025,659.719727 
	C589.260925,664.924866 583.531128,672.270874 577.678894,679.915588 
	C570.960754,688.691467 569.655823,698.078918 571.008789,708.405884 
	C572.204102,704.590149 571.401306,700.532959 572.417603,696.613525 
	C575.011841,686.608582 580.069946,678.449829 588.115234,671.838196 
	C592.445374,668.279663 595.938416,663.918030 601.347290,661.509583 
	C625.633545,650.695618 651.571350,668.807617 654.994263,691.098206 
	C656.848022,703.170227 653.743896,713.804871 646.439697,723.381836 
	C645.128113,725.101624 643.739502,726.762634 641.882629,728.855957 
	C640.296692,730.027222 639.191650,730.763184 638.135864,731.563965 
	C623.049622,743.006592 603.431763,742.223328 589.038574,729.739136 
	C586.327209,727.387329 585.495911,725.715942 588.216125,722.481689 
	C595.278503,714.084595 601.902039,705.317322 608.665344,696.670227 
	C612.595154,691.645813 616.456726,686.568054 620.363525,681.495422 
	C617.978333,679.612549 615.876282,679.376160 613.684937,679.344238 
	C602.558167,679.182068 591.579590,689.948975 590.357544,703.201599 
	C589.910217,708.052856 587.738953,709.034851 583.773132,709.127319 
	C579.996216,709.215271 576.057068,708.732788 571.968933,712.195740 
	C577.847595,712.139893 582.493347,712.763428 587.580383,710.098328 
	C592.605103,707.465881 591.700195,702.531006 593.007202,699.043640 
	C595.176453,693.255554 598.175842,688.487732 603.186646,685.920410 
	C606.425720,684.260803 608.694702,679.815491 613.394958,680.953796 
	C613.972412,683.113708 614.553833,684.959534 613.096436,686.815918 
	C610.635925,689.950012 608.654846,693.564514 605.797546,696.262512 
	C598.899536,702.775940 594.658203,711.344482 588.090698,718.124573 
	C582.053040,724.357727 580.315674,727.996704 589.870056,732.626160 
	C590.302795,732.835815 590.640259,733.235535 591.037964,733.524963 
	C596.956909,737.832947 603.004333,741.550598 610.758240,741.807434 
	C618.312622,742.057556 625.900208,741.947571 632.526184,738.339417 
	C636.266907,736.302368 641.854431,735.084290 641.984680,728.979736 
M621.552856,702.042236 
	C617.933960,707.475525 612.954468,711.966736 609.900024,717.913696 
	C619.493469,722.226624 628.332581,719.237793 633.865356,710.308533 
	C637.318237,704.735962 638.507935,695.343445 631.538513,690.092102 
	C627.699463,693.320007 625.344116,697.823669 621.552856,702.042236 
M583.083191,689.268921 
	C583.589111,691.462830 584.693787,692.348328 586.326660,690.288940 
	C587.335388,689.016785 587.800964,687.287964 587.190918,685.625000 
	C587.035461,685.201294 586.103088,684.725464 585.629028,684.814331 
	C583.620544,685.190857 583.296265,686.872253 583.083191,689.268921 
z"/>
<path fill="#000000" opacity="1.000000" stroke="none" 
	d="
M595.728516,397.845581 
	C594.037720,375.406891 616.153198,358.773773 635.518677,359.760132 
	C653.335388,360.667603 675.265869,380.136444 670.240051,405.367493 
	C671.161316,404.904480 671.930725,404.624451 672.581116,404.172852 
	C675.845276,401.906464 678.282532,402.146271 680.117371,406.078461 
	C681.376343,408.776611 683.108643,411.262146 684.714600,413.788513 
	C688.487366,419.723541 688.525146,419.950195 682.287231,423.642029 
	C668.968079,431.524872 655.565491,439.266663 642.241821,447.141968 
	C635.503906,451.124603 628.833740,455.191193 621.432190,457.909760 
	C618.361206,459.037781 615.238281,459.083191 612.082031,459.109131 
	C609.885925,459.127136 607.937683,458.192322 607.434875,456.027252 
	C606.064636,450.126556 601.614197,446.864807 597.186401,443.620758 
	C594.287659,441.497009 591.548584,439.467041 591.469604,435.423615 
	C591.457703,434.811157 591.109436,434.070343 590.675903,433.621613 
	C585.373230,428.132965 583.003967,420.498932 576.968994,415.462830 
	C572.369629,411.624725 572.522644,411.346771 570.374756,417.128723 
	C570.163025,417.698669 569.740540,418.190338 568.855957,419.628906 
	C566.134155,413.209076 564.578979,407.499786 565.755798,401.294312 
	C566.138855,399.274780 567.621521,398.117279 569.675781,398.048401 
	C573.503479,397.920074 577.337891,397.833618 581.165771,397.912140 
	C584.823181,397.987183 584.048218,400.854462 584.111084,403.067078 
	C584.409912,413.587860 587.674316,423.100647 594.573303,431.030121 
	C601.809875,439.347626 610.541199,439.921753 620.261230,432.962219 
	C604.230835,426.821136 597.667175,414.158630 595.728516,397.845581 
M629.143250,383.421906 
	C619.522583,388.162018 616.358582,393.391327 617.287109,403.017059 
	C618.299561,413.512604 629.116272,422.996826 638.365479,421.498810 
	C649.229065,419.739410 657.073975,409.939331 654.625244,400.213287 
	C651.386841,387.351349 641.439575,379.535767 629.143250,383.421906 
z"/>
<path fill="#000000" opacity="1.000000" stroke="none" 
	d="
M520.030457,337.973724 
	C517.850281,338.838226 515.816833,338.222290 513.732483,337.486267 
	C504.963135,334.389679 496.171661,331.355804 487.384277,328.310577 
	C486.447937,327.986053 485.466766,327.761505 484.994232,326.423035 
	C487.424622,323.722961 490.105225,325.117798 492.691345,325.895142 
	C494.865814,326.548798 497.635498,328.243530 498.836395,325.416718 
	C499.899200,322.914948 497.733521,320.835815 495.438812,319.445221 
	C490.762360,316.611176 485.919403,314.102142 481.542664,310.714691 
	C475.040009,305.681885 466.893646,307.332947 459.448395,306.217407 
	C456.375031,305.756927 453.175079,306.141083 449.455078,306.141083 
	C457.554504,276.932526 467.642151,248.961014 476.967651,220.346710 
	C477.035431,219.966202 477.006683,219.992065 477.328461,220.148651 
	C483.320618,222.161545 488.993408,224.010666 494.660950,225.875565 
	C509.622681,230.798706 524.633728,235.578995 539.525757,240.704971 
	C550.733948,244.562927 549.304626,242.460831 546.433533,252.412979 
	C546.020996,253.842987 545.509399,255.249207 544.965088,256.635590 
	C542.889771,261.921600 541.947327,262.234711 536.505920,260.335663 
	C531.034729,258.426178 525.483521,256.746185 519.967346,254.965607 
	C519.967346,254.965607 520.007812,254.987183 519.717773,254.817200 
	C510.976471,251.881210 502.739655,248.410950 493.721039,246.264572 
	C491.493591,252.796158 488.907928,258.661469 487.472809,265.476379 
	C500.020782,269.650208 512.269958,273.777527 524.556763,277.789673 
	C530.840271,279.841461 530.882385,279.751953 528.929321,285.833740 
	C528.166626,288.208923 527.194580,290.526031 526.574402,292.935608 
	C525.690613,296.369232 523.973389,297.489685 520.422119,296.296600 
	C510.036621,292.807373 499.494080,289.772491 489.172546,286.109985 
	C480.930298,283.185333 480.738007,283.039185 478.531769,291.637604 
	C478.369171,292.271362 478.414825,292.958557 478.363647,293.620911 
	C478.263062,293.770203 478.162415,293.919495 477.919006,294.300476 
	C476.611145,297.444885 475.132050,300.256287 474.747192,303.957855 
	C479.834229,307.025299 485.847717,307.837555 491.393738,309.803741 
	C501.251526,313.298615 511.196594,316.563538 521.188782,319.654297 
	C524.595032,320.707947 525.301758,322.307953 524.103943,325.478607 
	C522.635681,329.364990 521.447144,333.357086 520.068604,337.656982 
	C519.999573,338.010468 520.030457,337.973724 520.030457,337.973724 
z"/>
<path fill="#000000" opacity="1.000000" stroke="none" 
	d="
M173.818573,438.881531 
	C175.701508,438.760803 177.170013,438.644318 178.638535,438.527832 
	C178.858337,438.173523 179.078140,437.819244 179.297943,437.464935 
	C175.197357,434.367188 171.115387,431.244415 166.992249,428.176971 
	C158.994095,422.226715 151.126892,416.081940 142.900497,410.464325 
	C138.327911,407.341858 139.353775,403.683197 140.428162,399.625153 
	C141.341400,396.175751 140.937805,391.396698 144.326752,389.967163 
	C147.889816,388.464203 150.845306,392.202118 153.730148,394.386139 
	C170.309525,406.937866 186.831787,419.567810 203.567078,431.908630 
	C207.573944,434.863342 209.070969,437.726288 206.789429,442.373077 
	C205.854263,444.277740 205.615738,446.522308 205.043549,448.607635 
	C202.831329,456.670044 202.642502,456.766113 194.301773,457.176910 
	C182.016846,457.781921 169.735611,458.462463 157.453705,459.127380 
	C156.802917,459.162628 156.160461,459.351837 155.166885,459.532562 
	C155.929749,461.898865 157.823288,462.949280 159.452484,464.200806 
	C169.076111,471.593506 178.652313,479.050232 188.379776,486.304016 
	C191.220810,488.422607 191.848862,490.725372 191.076645,494.048859 
	C187.326996,510.186127 186.635895,510.953644 169.990631,511.184021 
	C163.650055,511.271790 156.933731,512.747131 150.834030,507.984131 
	C153.599197,504.029510 152.717300,500.667114 149.583603,497.067749 
	C146.857941,493.937103 149.964310,492.648010 152.510086,492.259338 
	C155.880295,491.744751 159.330490,491.754120 164.164948,491.448669 
	C159.209473,487.600403 155.367706,484.564484 151.468506,481.604187 
	C147.763367,478.791199 143.928741,476.145050 140.282822,473.259064 
	C137.665192,471.187012 135.500961,468.888947 138.637238,465.395630 
	C140.749542,463.042908 139.027786,460.932922 137.508469,459.221283 
	C134.639893,455.989594 131.437943,453.053986 128.566498,449.824646 
	C127.332405,448.436676 125.256531,447.106262 126.345940,444.708313 
	C127.488708,442.192932 129.709045,441.096069 132.349976,440.946625 
	C137.496307,440.655365 142.733154,440.188293 147.786438,440.452911 
	C156.453476,440.906738 164.871246,439.380890 173.818573,438.881531 
M176.851364,489.300110 
	C177.578903,490.969147 177.035446,493.192902 179.437119,494.819153 
	C180.621552,492.564362 182.751312,490.793610 180.911102,488.238678 
	C179.772964,486.658539 178.089966,486.788757 176.851364,489.300110 
z"/>
<path fill="#000000" opacity="1.000000" stroke="none" 
	d="
M519.985840,338.030243 
	C528.052917,327.910004 536.103821,317.746002 544.223816,307.637512 
	C550.791016,299.462097 557.533325,291.425476 563.999695,283.171906 
	C565.963501,280.665375 567.517456,280.059814 570.082947,282.224243 
	C573.641663,285.226654 577.343506,288.066833 581.074097,290.856201 
	C585.490723,294.158478 580.463684,296.180939 579.970825,299.184021 
	C583.910950,300.389404 588.107117,299.802582 592.021606,301.328522 
	C605.400391,306.543823 614.614014,315.054840 616.579407,329.991547 
	C617.556885,337.421021 615.133789,344.006073 610.912842,349.652588 
	C601.645386,362.050079 591.846863,374.050201 582.288757,386.231079 
	C580.903870,387.995911 579.500793,388.362579 577.648560,386.885895 
	C573.483887,383.565521 569.262939,380.315704 565.062500,377.040222 
	C562.676880,375.179901 562.919373,373.386475 564.790955,371.158356 
	C572.283691,362.238098 579.529297,353.108704 587.088623,344.246246 
	C596.931030,332.706940 593.469971,319.528381 579.416016,315.872223 
	C573.558167,314.348328 568.572754,316.220612 564.352722,320.311615 
	C557.508118,326.947052 552.308960,334.969971 546.094238,342.139435 
	C543.590454,345.027802 541.138000,347.960724 538.668030,350.878357 
	C537.879333,351.809967 536.873108,352.839447 535.717651,351.977936 
	C530.215149,347.875183 523.433777,345.260651 520.020691,338.336426 
	C520.030457,337.973724 519.999573,338.010468 519.985840,338.030243 
M532.573547,347.005554 
	C535.158569,348.798340 536.875000,347.730652 538.004944,345.236786 
	C538.692932,343.718323 539.237122,341.963287 537.460815,340.830292 
	C535.728882,339.725525 533.938782,340.312714 532.458496,341.514587 
	C530.664490,342.971191 531.341248,344.716064 532.573547,347.005554 
z"/>
<path fill="#000000" opacity="1.000000" stroke="none" 
	d="
M647.162292,663.143616 
	C635.000183,659.025513 637.427490,658.867310 640.335754,650.324341 
	C644.679810,637.563416 649.183105,624.856689 653.561340,612.107239 
	C654.248291,610.107056 655.416748,608.174561 654.920044,605.452087 
	C648.772278,604.653442 643.758057,607.052002 640.228027,611.741577 
	C635.199341,618.421875 632.261719,625.953613 633.975037,634.622986 
	C634.926636,639.437744 632.945862,642.341125 628.405334,644.254822 
	C619.196228,648.136169 617.184265,647.229675 615.676758,637.223450 
	C614.543701,629.702759 614.474060,622.329956 619.222839,615.642090 
	C620.280823,614.152039 620.311829,611.838379 620.535767,609.872009 
	C620.893860,606.727722 621.931091,603.973083 624.699036,602.279968 
	C628.624207,599.879028 629.269592,595.033325 632.657593,592.170593 
	C646.775391,580.241882 664.892578,579.796265 680.523438,591.057373 
	C686.394592,595.287231 690.502075,600.689941 692.829041,607.548035 
	C693.577393,609.753662 693.225464,611.243164 690.967224,611.772888 
	C686.366760,612.852173 684.602661,617.021057 684.515442,620.348511 
	C684.361389,626.231812 681.369385,630.819702 679.256165,635.697144 
	C677.365662,640.060669 674.758362,644.165161 673.027771,648.680603 
	C671.905090,651.609924 669.143433,652.045715 666.447754,652.414917 
	C662.294373,652.983765 659.157104,654.541138 658.775391,659.398193 
	C658.536804,662.433716 656.265930,663.610229 653.522949,663.685852 
	C651.542908,663.740479 649.551514,663.383362 647.162292,663.143616 
M660.606812,633.024536 
	C659.469421,636.283691 658.192322,639.507202 657.797363,642.944092 
	C664.524353,644.976807 675.355896,640.076965 677.188721,634.307007 
	C681.118469,621.935852 676.669006,612.600586 668.890076,609.970520 
	C666.233521,617.404297 663.570740,624.855469 660.606812,633.024536 
M620.961548,632.749084 
	C622.314209,630.610229 622.519714,628.649048 619.952332,626.583618 
	C618.865479,629.111694 617.988953,631.109375 620.961548,632.749084 
z"/>
<path fill="#000000" opacity="1.000000" stroke="none" 
	d="
M689.323730,528.907043 
	C687.315796,523.854309 683.384583,521.142761 678.598816,518.865112 
	C682.217163,515.243591 685.123657,517.222290 687.793457,518.350037 
	C690.953674,519.684875 693.749573,521.081482 696.412415,517.392395 
	C697.614075,515.727661 699.217407,516.437317 700.696289,517.736328 
	C704.572083,521.140869 707.375916,525.314758 708.569519,530.219727 
	C712.683533,547.125732 710.545593,562.908691 694.166077,571.050598 
	C688.582886,573.825928 682.448120,574.795959 676.256836,574.899475 
	C663.939270,575.105469 651.617004,575.034973 639.300049,575.262451 
	C634.649597,575.348328 632.466919,573.632996 632.876038,568.793091 
	C633.141724,565.650208 632.980591,562.471558 633.014343,559.308899 
	C633.068481,554.236816 635.092163,552.020874 640.283325,551.911804 
	C649.273376,551.722961 658.267639,551.732910 667.260132,551.664368 
	C668.882935,551.651978 670.505859,551.662598 672.128723,551.662598 
	C672.138123,551.194702 672.147583,550.726807 672.157043,550.258911 
	C665.843506,550.258911 659.530029,550.258850 653.216553,550.258850 
	C646.993286,550.258850 640.770020,550.258911 634.546753,550.258911 
	C634.526001,549.808655 634.505249,549.358398 634.484497,548.908142 
	C637.746826,547.467224 641.263489,547.152283 644.817993,547.031921 
	C649.348816,546.878418 653.791504,546.173889 657.949097,544.349487 
	C662.490601,542.356506 663.682312,539.157593 661.844604,534.671448 
	C660.472595,531.322083 662.647949,522.411316 665.143738,521.157471 
	C668.741699,519.349915 677.433716,521.191956 679.942139,524.181274 
	C681.028015,525.475342 681.146790,526.843323 680.915955,528.374573 
	C679.588440,537.180603 679.590759,537.180969 687.702271,535.847839 
	C689.602234,539.768982 686.415955,542.325317 684.549866,544.538574 
	C682.563843,546.894043 679.013184,547.878418 677.303650,550.899475 
	C688.341858,550.502686 693.344238,541.575378 689.323730,528.907043 
z"/>
<path fill="#000000" opacity="1.000000" stroke="none" 
	d="
M130.015472,641.003784 
	C129.010773,634.011108 128.853928,633.738159 122.397667,635.308655 
	C103.952431,639.795654 90.397072,624.384277 89.661385,608.207092 
	C89.546188,605.674133 88.301537,603.002930 90.000473,600.420166 
	C93.124245,595.671265 97.751747,596.752930 102.174278,597.125793 
	C106.431335,597.484680 106.091202,600.744019 106.317940,603.785828 
	C106.926003,611.943481 111.555229,615.429871 118.978233,613.540710 
	C121.478157,612.904480 122.767685,611.733276 121.784821,608.912781 
	C120.745445,605.930176 119.933937,602.867554 119.043968,599.833801 
	C118.716583,598.717834 117.949959,597.434265 118.235695,596.483032 
	C120.103844,590.263916 126.427895,592.098877 130.596115,590.000488 
	C133.375610,588.601257 134.273270,591.021301 134.932831,593.236328 
	C135.928757,596.581116 137.173813,599.862000 137.983185,603.248901 
	C138.695816,606.230957 140.061707,606.901672 142.984039,606.032959 
	C157.149918,601.821716 171.365601,597.778137 185.560455,593.664185 
	C186.355835,593.433655 187.107193,593.047791 187.905289,592.830750 
	C194.240021,591.108154 194.351089,591.167725 196.192062,597.391846 
	C197.133377,600.574341 197.683945,603.927124 199.035858,606.920837 
	C201.184082,611.677979 199.098816,613.591614 194.839111,614.776611 
	C184.912857,617.537964 175.007431,620.375977 165.115555,623.258423 
	C158.770981,625.107178 152.465515,627.090088 145.997177,629.057129 
	C146.057938,629.931519 146.065552,630.573608 146.152725,631.204712 
	C146.564484,634.185852 149.850967,637.574402 146.932068,640.016418 
	C143.238464,643.106628 138.017776,643.310181 133.348434,644.336975 
	C131.384705,644.768921 131.300919,642.517395 130.190842,641.194092 
	C129.978561,640.943115 130.001099,640.984924 130.015472,641.003784 
M101.706886,625.051270 
	C104.853729,626.510193 107.980301,628.015503 111.157616,629.404724 
	C112.376839,629.937683 113.799126,630.240173 114.914124,629.241150 
	C116.244415,628.049255 115.753746,626.550293 115.252747,625.105713 
	C113.491341,620.026978 108.294052,617.171509 103.134193,618.640076 
	C101.418816,619.128296 99.530403,619.822449 98.994392,621.820862 
	C98.568817,623.407471 99.834030,624.162231 101.706886,625.051270 
M99.977791,610.130676 
	C97.930565,609.953613 95.752281,609.890930 95.583298,612.617859 
	C95.472801,614.401062 97.051796,614.676453 98.408012,614.176819 
	C100.063591,613.566956 102.855530,613.372131 99.977791,610.130676 
z"/>
<path fill="#000000" opacity="1.000000" stroke="none" 
	d="
M307.841919,265.542145 
	C312.368011,265.682373 316.189453,263.580078 319.121063,261.432495 
	C323.322937,258.354370 327.532379,257.972992 332.208618,257.923553 
	C333.878662,257.905884 336.589050,258.453644 336.289062,255.726852 
	C336.028717,253.360443 333.641815,254.475113 332.134430,254.665359 
	C329.642242,254.979843 327.254303,253.668320 324.711365,254.463348 
	C321.931427,255.332489 325.078644,250.367844 322.968048,251.316589 
	C330.007507,251.865585 338.217316,248.649597 346.304138,252.748871 
	C354.665283,256.987213 361.108704,262.760590 364.623505,271.574219 
	C365.264313,273.181183 366.110382,274.749939 364.001892,275.850311 
	C362.155365,276.813995 361.404816,275.334595 360.397522,274.188019 
	C357.395935,270.771240 354.225861,271.003845 352.392395,275.171844 
	C350.969421,278.406586 349.679504,281.123810 345.681610,281.553406 
	C344.340302,281.697510 343.238892,282.971130 343.618286,284.497681 
	C344.023315,286.127380 345.600769,286.146637 346.922974,285.982513 
	C351.319733,285.436768 354.954987,282.992950 358.860046,281.170929 
	C361.807129,279.795929 365.277283,277.804108 367.871033,283.372681 
	C350.021271,289.463745 332.588348,295.412537 315.068329,301.391052 
	C318.351685,306.853424 321.271576,308.801636 328.346954,310.500916 
	C325.551849,313.585846 322.783264,313.938965 318.090088,311.202148 
	C314.713470,309.233154 311.432983,307.991699 307.354736,307.973328 
	C302.899689,307.953308 299.094971,308.309448 296.853973,312.757141 
	C287.319946,301.490112 285.805023,283.170532 293.424896,271.091797 
	C295.943451,267.099487 301.367584,266.521240 303.668365,262.509155 
	C305.719086,263.167786 305.795197,265.317169 307.841919,265.542145 
M315.708618,272.160858 
	C311.084045,276.392029 309.146484,281.466431 310.677826,288.308929 
	C322.162231,284.824432 333.379791,281.652130 344.184570,277.059113 
	C339.428101,266.881165 326.703156,263.876709 315.708618,272.160858 
M345.977570,261.105438 
	C345.343201,257.830170 342.997986,258.756470 340.505035,258.660583 
	C341.282837,262.011444 343.170837,262.133789 345.977570,261.105438 
z"/>
<path fill="#000000" opacity="1.000000" stroke="none" 
	d="
M266.008606,299.976440 
	C261.192108,305.816833 261.034882,312.635925 265.900604,320.201965 
	C271.564606,329.009277 277.391693,337.713379 283.248352,346.394623 
	C286.830017,351.703613 286.806122,352.159149 281.621765,355.717102 
	C277.521667,358.530823 273.466553,361.410095 268.759155,364.702545 
	C264.387634,358.551025 260.094360,352.721222 256.024414,346.739410 
	C246.947388,333.398438 237.993134,319.974060 228.965149,306.599640 
	C225.588928,301.597992 225.652954,301.058228 230.810028,297.625092 
	C234.919586,294.889343 239.073090,292.219543 243.383286,289.405426 
	C245.083725,291.584137 246.500580,293.399445 248.337646,295.753174 
	C250.136536,287.723145 254.190735,281.586304 260.433319,276.850220 
	C263.478180,274.540161 265.808502,274.538666 267.745941,278.052582 
	C267.984192,278.484711 268.379486,278.827209 268.651489,279.244202 
	C270.833130,282.588409 274.045166,285.690948 274.921570,289.351135 
	C276.114288,294.332703 269.109344,293.679047 267.571686,297.317139 
	C267.256348,298.063263 266.655914,298.688904 266.079834,299.692474 
	C265.972809,300.014862 265.998993,299.991394 266.008606,299.976440 
z"/>
<path fill="#000000" opacity="1.000000" stroke="none" 
	d="
M560.484375,773.421997 
	C566.012451,766.072571 566.498230,757.741272 561.542297,750.415833 
	C555.767029,741.879456 549.813110,733.451355 543.607483,725.224548 
	C540.741821,721.425537 540.364380,718.504639 544.449707,715.594360 
	C547.427612,713.472900 550.518738,711.465576 553.255493,709.061462 
	C556.646240,706.082947 558.866150,707.465332 561.018677,710.466125 
	C567.900391,720.059814 574.798035,729.642151 581.703735,739.218628 
	C587.736328,747.584290 593.698486,756.003296 599.880554,764.257324 
	C602.020874,767.114929 601.569031,768.852112 598.712708,770.685059 
	C595.635010,772.660095 592.519958,774.686890 589.843079,777.149719 
	C586.243469,780.461426 583.593811,780.205750 581.235229,775.961426 
	C580.934631,775.420410 580.402893,775.007812 579.412720,773.906921 
	C578.313049,782.482117 573.851929,788.373352 568.151489,793.752380 
	C565.066956,796.662903 563.464661,795.902832 561.554199,793.001221 
	C560.734558,791.756409 559.908386,790.510620 559.002441,789.328735 
	C553.022461,781.527527 553.121277,780.191956 560.484375,773.421997 
M566.432373,783.939392 
	C564.552490,782.515076 562.964294,780.427429 559.898743,780.968384 
	C559.516785,784.891602 560.107727,788.583618 564.177551,789.329285 
	C567.054260,789.856384 567.820129,787.174500 566.432373,783.939392 
z"/>
<path fill="#000000" opacity="1.000000" stroke="none" 
	d="
M129.701447,560.463135 
	C131.044662,556.242981 133.786636,555.199219 137.508209,553.422363 
	C145.909592,549.411194 154.693130,550.380798 163.181747,548.640869 
	C169.261581,547.394714 171.406555,544.037781 170.387482,537.734375 
	C169.197281,530.372498 173.747040,524.816589 181.235840,524.370117 
	C182.755341,524.279541 183.914337,524.764465 184.629852,525.975464 
	C190.898010,536.584045 191.887421,558.941162 178.381424,567.119019 
	C172.784866,570.507751 166.591080,571.515015 160.261749,571.964844 
	C152.962097,572.483521 145.651566,573.016113 138.339401,573.128235 
	C134.055679,573.193848 131.662369,574.272461 132.240082,579.096436 
	C132.534119,581.551636 132.756714,584.470825 129.470932,585.214294 
	C125.295204,586.159119 120.928452,587.337158 116.844986,585.194336 
	C115.126289,584.292542 115.402840,581.871460 115.329216,580.125427 
	C115.111099,574.953064 112.910370,572.406311 107.477272,573.177673 
	C106.226707,573.355225 104.891586,572.937317 102.072861,572.624451 
	C106.298470,570.033203 109.341202,568.050964 112.508339,566.292725 
	C113.519073,565.731628 114.962807,565.960632 115.780357,566.874146 
	C120.055031,571.650757 122.589363,568.028931 125.319466,565.026978 
	C126.654625,563.558777 128.078247,562.171021 129.701447,560.463135 
z"/>
<path fill="#000000" opacity="1.000000" stroke="none" 
	d="
M546.917236,620.807129 
	C548.701294,619.850281 550.151550,619.030884 551.669983,618.367615 
	C555.311829,616.776917 558.845520,616.794006 561.850525,619.701538 
	C564.692688,622.451538 565.104858,625.752197 563.429138,629.301514 
	C561.531860,633.320129 561.848389,636.972778 564.941772,640.336243 
	C567.724609,643.362061 567.539246,647.020020 565.589050,650.072998 
	C561.621399,656.284302 556.164551,660.890503 548.549194,661.894104 
	C541.375366,662.839478 535.636047,659.111023 535.772705,651.995239 
	C535.988770,640.740479 537.441345,629.379700 546.917236,620.807129 
z"/>
<path fill="#000000" opacity="1.000000" stroke="none" 
	d="
M563.047241,764.313110 
	C560.380188,768.679260 558.149963,772.814575 553.407654,774.902283 
	C551.022827,775.952148 549.859253,778.514343 549.758850,782.207642 
	C548.053467,778.140503 548.012756,775.144470 549.442566,772.097595 
	C551.492126,767.729980 550.044861,765.119812 545.619080,763.153809 
	C541.803589,761.459045 537.925537,760.003540 534.020447,758.588745 
	C525.963257,755.669617 522.702332,749.093506 521.325256,741.410034 
	C520.449036,736.521057 526.165894,733.093262 532.556213,734.474548 
	C534.945190,734.990967 537.240051,735.942627 539.949768,736.815674 
	C542.684082,730.463501 533.563049,727.905640 536.237671,721.844604 
	C538.438843,724.427124 542.267944,725.553894 542.212341,729.882874 
	C542.179932,732.412170 544.630310,732.781860 546.008911,733.629089 
	C549.018616,735.478882 550.644714,737.919861 551.850281,741.145813 
	C553.597656,745.821960 557.137329,749.448547 560.173340,753.318237 
	C562.681458,756.514954 563.971558,759.874084 563.047241,764.313110 
z"/>
<path fill="#000000" opacity="1.000000" stroke="none" 
	d="
M643.532959,465.929230 
	C641.706055,465.739929 640.363525,465.375916 640.559143,463.583679 
	C640.717773,462.130615 642.068298,462.032959 643.179749,461.716705 
	C657.813904,457.552887 672.433167,453.336212 687.084229,449.232971 
	C692.207275,447.798187 696.114685,450.109619 697.636047,455.190277 
	C698.159912,456.939819 698.696289,458.688721 699.129211,460.461792 
	C700.434021,465.806305 698.981323,469.169189 693.739502,470.811005 
	C685.518127,473.386139 677.161377,475.557678 668.792847,477.619598 
	C665.666687,478.389801 663.831238,477.442535 665.576477,473.596649 
	C666.785645,470.931824 663.941040,465.130127 661.214233,464.024841 
	C660.654541,463.797974 659.613464,463.612244 659.381409,463.893005 
	C654.846680,469.377563 649.011169,464.763519 643.532959,465.929230 
z"/>
<path fill="#000000" opacity="1.000000" stroke="none" 
	d="
M639.801208,585.079712 
	C635.746765,584.722717 634.147644,588.120789 631.479065,589.538757 
	C629.443726,590.620178 627.726013,592.244568 624.994568,592.027039 
	C624.239746,590.085144 625.601379,588.817871 626.622559,587.724976 
	C629.193237,584.973694 629.039612,582.229004 627.505371,579.030457 
	C626.089844,576.079346 624.672913,574.687927 620.982971,575.849182 
	C614.687378,577.830505 610.810547,573.934326 612.202393,567.546265 
	C612.602844,565.708496 613.195068,563.812134 615.382935,563.556824 
	C617.737122,563.282043 619.578491,564.292969 620.567688,566.590271 
	C621.063293,567.741333 620.982788,569.265869 622.869995,570.021423 
	C624.898926,563.455383 626.752319,556.902649 631.323242,551.149841 
	C632.104980,558.893250 632.072266,566.081177 631.958923,573.273804 
	C631.898254,577.120178 633.517639,579.191223 637.709961,578.702942 
	C647.355774,577.579346 657.083069,578.228943 666.761841,576.165039 
	C673.453857,574.737976 680.680969,575.808777 687.669067,575.788086 
	C689.993774,575.781189 692.183289,575.904724 694.118408,573.958374 
	C695.961182,572.104858 698.663086,572.346191 700.615784,573.635254 
	C702.939697,575.169312 701.660706,577.550842 700.812805,579.502686 
	C698.846558,584.029480 696.332458,587.897827 690.463257,586.569885 
	C689.453125,591.415649 697.073120,594.928406 692.300903,600.474243 
	C687.675659,593.293335 681.532837,589.008789 674.883667,584.710205 
	C669.691589,581.353516 664.131348,582.143066 659.034485,580.920166 
	C653.176941,579.514709 645.973572,581.227356 639.801208,585.079712 
z"/>
<path fill="#000000" opacity="1.000000" stroke="none" 
	d="
M168.665344,435.170441 
	C166.413391,436.970337 164.005386,437.294403 161.460922,437.280090 
	C153.982452,437.238190 146.503448,437.276642 139.024719,437.300354 
	C133.036942,437.319366 126.574409,435.760651 122.449608,443.134186 
	C121.865387,439.299622 122.521385,438.160034 125.781914,436.666443 
	C132.099045,433.772552 139.261612,431.159271 141.333313,422.889984 
	C142.262207,419.182190 140.221954,417.276917 138.240723,415.102539 
	C136.386002,413.067078 133.665237,411.586792 134.190201,407.621704 
	C138.504745,410.520264 142.913620,412.867432 146.558670,416.080994 
	C151.520569,420.455414 157.776581,422.984314 162.418030,427.616547 
	C164.647018,429.841095 167.848434,431.354218 168.665344,435.170441 
z"/>
<path fill="#000000" opacity="1.000000" stroke="none" 
	d="
M117.855576,605.794800 
	C118.781639,607.275818 120.768623,608.862732 118.525291,609.658936 
	C115.883766,610.596558 112.241013,611.640503 110.378616,608.582458 
	C108.663956,605.766968 106.617920,602.625122 108.219734,598.785339 
	C109.395699,595.966492 107.558540,594.556030 105.128906,594.443665 
	C99.993446,594.206116 94.833832,594.178345 89.696671,594.381531 
	C84.958382,594.568909 86.977760,599.341370 85.332695,601.583557 
	C83.528435,602.053528 82.684242,601.120300 82.297035,599.704346 
	C81.151611,595.515503 88.256920,587.266724 92.499390,587.834778 
	C95.132103,588.187378 97.746834,588.729980 100.389267,588.937927 
	C102.834671,589.130310 105.544197,589.541931 106.962326,586.700439 
	C108.458549,583.702393 105.779091,582.657959 104.213089,581.092896 
	C103.888710,580.768616 103.736725,580.271912 103.407524,579.678467 
	C108.089241,577.384338 110.092445,580.460327 111.839165,583.709229 
	C115.484413,590.489441 116.529991,597.994507 117.855576,605.794800 
z"/>
<path fill="#000000" opacity="1.000000" stroke="none" 
	d="
M624.046997,508.130646 
	C623.687073,503.702240 626.269287,500.010193 625.159973,495.919708 
	C624.890015,494.924286 625.575134,494.018982 626.675659,493.656403 
	C629.629089,492.683197 632.485718,491.773804 634.742493,489.236969 
	C635.739502,488.116211 637.843140,488.883453 639.066895,490.398315 
	C640.089355,491.664001 641.281433,492.792633 642.628723,494.227234 
	C640.633362,495.517456 638.459717,494.931824 636.441345,494.962494 
	C629.396667,495.069458 629.081787,495.375397 629.174622,502.213593 
	C629.237610,506.853851 629.195435,511.495728 629.176941,516.136780 
	C629.168945,518.128235 628.982422,520.160095 631.246338,521.506226 
	C627.636230,522.602112 626.148315,520.685547 625.248474,517.898682 
	C624.271057,514.871460 623.907837,511.753693 624.046997,508.130646 
z"/>
<path fill="#000000" opacity="1.000000" stroke="none" 
	d="
M730.190613,444.256287 
	C726.126709,447.426453 721.658264,449.622284 716.642334,448.905518 
	C713.600342,448.470795 711.165283,448.399475 709.294189,451.230713 
	C707.380920,447.337799 708.733887,443.541016 712.579712,441.158081 
	C720.165100,436.458008 724.810730,437.189545 730.190613,444.256287 
z"/>
<path fill="#000000" opacity="1.000000" stroke="none" 
	d="
M129.796463,486.018188 
	C131.504395,486.358368 130.982910,488.125427 132.160187,488.860992 
	C132.913406,488.493103 133.616196,488.089233 134.362213,487.794891 
	C142.205353,484.700287 142.402435,483.178436 135.841644,477.321411 
	C134.567642,476.184052 132.387802,475.749176 132.430405,473.062897 
	C134.249298,473.063110 135.322479,472.858490 137.300476,474.491974 
	C140.758636,477.347839 144.193176,480.507477 148.238647,482.688568 
	C148.806839,482.994873 149.946716,483.075897 149.991699,483.382874 
	C150.300507,485.489594 154.049011,485.338470 153.150162,487.859619 
	C152.332336,490.153534 149.982483,488.973969 148.299423,489.214813 
	C140.238693,490.368439 132.201584,490.524506 123.956749,488.808258 
	C124.737175,484.928345 127.418999,486.097229 129.796463,486.018188 
z"/>
<path fill="#000000" opacity="1.000000" stroke="none" 
	d="
M673.975281,659.978821 
	C671.950500,659.448059 670.011108,659.732544 667.671021,657.844421 
	C673.982361,655.332336 679.793945,652.730957 683.361511,647.197998 
	C686.718811,641.991211 688.057373,635.426392 694.393494,630.412964 
	C694.187012,638.379944 691.425842,643.914917 687.200928,648.489319 
	C683.324280,652.686646 678.651428,656.148682 673.975281,659.978821 
z"/>
<path fill="#000000" opacity="1.000000" stroke="none" 
	d="
M242.906921,393.008728 
	C244.847702,386.746552 251.130539,385.224182 254.783936,380.965332 
	C256.429565,379.046936 257.855774,381.409393 258.303253,383.356506 
	C259.424774,388.236603 255.877045,393.035889 249.519516,394.770630 
	C247.279785,395.381805 244.321304,397.600983 242.906921,393.008728 
z"/>
<path fill="#000000" opacity="1.000000" stroke="none" 
	d="
M48.280159,535.510254 
	C48.161362,534.633850 48.074074,534.133972 48.114643,533.644775 
	C48.453217,529.561646 50.662090,527.272888 54.765495,527.059448 
	C57.398323,526.922485 59.340858,528.152405 59.794994,530.842529 
	C60.380524,534.310974 59.895050,537.773743 56.381973,539.378174 
	C52.804890,541.011841 49.959610,539.549805 48.280159,535.510254 
z"/>
<path fill="#000000" opacity="1.000000" stroke="none" 
	d="
M612.973572,608.126221 
	C614.700256,603.726013 616.896118,600.128418 620.424255,597.453247 
	C622.711121,599.057068 622.377747,600.798340 621.326294,602.433289 
	C616.494995,609.945312 613.240967,617.932434 614.055725,627.477234 
	C609.695251,623.817017 609.540100,619.578613 612.973572,608.126221 
z"/>
<path fill="#000000" opacity="1.000000" stroke="none" 
	d="
M99.462067,549.925903 
	C97.556877,549.929016 96.074020,549.929016 94.591156,549.929016 
	C101.496666,550.095398 103.740410,543.835999 107.951904,540.343384 
	C103.842293,531.463135 104.760071,528.602722 111.925636,528.776917 
	C109.521217,533.254883 110.047935,538.047302 110.088829,542.757324 
	C110.150406,549.849426 110.079300,549.988892 102.882835,549.939148 
	C101.883362,549.932251 100.883881,549.928162 99.462067,549.925903 
z"/>
<path fill="#000000" opacity="1.000000" stroke="none" 
	d="
M689.342407,492.171204 
	C687.390686,491.861115 685.588379,492.758057 684.138062,490.837982 
	C689.896973,488.550812 695.546448,489.309814 701.186768,490.197754 
	C703.479980,490.558777 705.720215,491.099670 708.081299,490.541321 
	C711.197021,489.804596 712.874329,491.852051 712.498108,494.335754 
	C711.405151,501.550964 712.327881,508.810516 711.067139,516.021362 
	C711.067139,509.973083 710.941528,503.921295 711.109863,497.877716 
	C711.228088,493.634308 709.495911,491.801666 705.218384,491.979858 
	C700.080994,492.193817 694.931763,492.124756 689.342407,492.171204 
z"/>
<path fill="#000000" opacity="1.000000" stroke="none" 
	d="
M165.569458,544.734375 
	C161.258652,547.045105 157.002396,545.738892 152.479782,546.064697 
	C152.724060,543.514832 154.023438,542.605164 155.869400,542.126404 
	C157.616104,541.673462 159.493759,541.437256 161.056046,540.615662 
	C165.739990,538.152222 166.141830,540.697632 165.569458,544.734375 
z"/>
<path fill="#000000" opacity="1.000000" stroke="none" 
	d="
M701.868591,474.009979 
	C700.185608,474.322815 698.843933,474.342072 697.809326,475.858002 
	C695.552307,479.164825 692.134888,479.214142 688.067505,478.719025 
	C689.969299,475.040497 691.883240,472.441040 696.240112,472.857391 
	C698.309021,473.055145 700.427795,472.727203 702.524719,472.661407 
	C702.567993,472.660004 702.704041,472.991943 702.652466,473.098480 
	C702.514587,473.383331 702.298035,473.630127 701.868591,474.009979 
z"/>
<path fill="#000000" opacity="1.000000" stroke="none" 
	d="
M266.617859,372.800110 
	C263.463531,374.350098 261.487457,377.228516 257.784698,378.260040 
	C258.351776,374.912384 261.814362,374.791199 262.602783,372.446503 
	C263.318909,370.316986 263.965118,368.163971 265.058655,364.703125 
	C265.698364,368.207886 272.667847,368.381989 266.617859,372.800110 
z"/>
<path fill="#000000" opacity="1.000000" stroke="none" 
	d="
M92.955795,568.188965 
	C95.573624,571.757690 92.439583,576.699463 96.635300,579.623291 
	C94.333618,581.482239 92.870834,580.008667 92.107300,578.479309 
	C90.380081,575.019775 89.652008,571.400085 92.955795,568.188965 
z"/>
<path fill="#000000" opacity="1.000000" stroke="none" 
	d="
M133.784866,397.939636 
	C134.731964,396.253479 135.765961,395.002625 137.388306,396.231903 
	C138.547836,397.110474 138.337875,398.701569 137.784164,399.876373 
	C136.903519,401.744812 136.001129,403.726654 133.557449,404.481201 
	C131.304535,402.330322 133.011444,400.293335 133.784866,397.939636 
z"/>
<path fill="#000000" opacity="1.000000" stroke="none" 
	d="
M713.115601,530.694946 
	C712.729431,532.687073 712.366028,534.274109 712.002625,535.861145 
	C712.204407,530.987671 708.302734,526.752258 709.389526,520.902893 
	C713.136536,523.802124 712.935303,527.123169 713.115601,530.694946 
z"/>
<path fill="#000000" opacity="1.000000" stroke="none" 
	d="
M679.947876,497.160370 
	C681.214905,497.558624 682.118164,497.860321 683.890137,498.452148 
	C677.344604,500.069794 672.040588,498.461975 666.702393,497.063782 
	C670.996338,497.063782 675.290222,497.063782 679.947876,497.160370 
z"/>
<path fill="#000000" opacity="1.000000" stroke="none" 
	d="
M317.298187,256.527283 
	C315.929535,257.867157 314.824982,259.485107 313.035156,257.888428 
	C312.077911,257.034485 312.315186,255.730270 312.890564,254.711960 
	C313.721466,253.241409 315.154694,252.877655 316.686737,253.347534 
	C318.347595,253.856918 318.615997,254.928116 317.298187,256.527283 
z"/>
<path fill="#000000" opacity="1.000000" stroke="none" 
	d="
M145.356842,364.247314 
	C142.899689,366.217957 142.039108,364.512268 141.411682,362.750702 
	C141.005432,361.610168 141.293518,360.055878 142.578949,359.976776 
	C145.249161,359.812500 145.521606,361.890411 145.356842,364.247314 
z"/>
<path fill="#000000" opacity="1.000000" stroke="none" 
	d="
M206.956024,713.122009 
	C201.565582,713.392151 197.106018,716.394348 191.747681,716.496155 
	C175.179764,716.810791 163.354416,708.835815 154.966278,695.570129 
	C146.381454,681.993469 145.498550,667.299744 152.626923,652.799500 
	C156.541336,644.836853 163.477844,640.229675 171.900894,636.670593 
	C178.772644,633.767029 185.206207,632.305481 192.382050,633.195190 
	C204.602127,634.710266 213.772522,641.189636 220.423050,651.206238 
	C229.700699,665.179626 232.330170,680.053406 224.612823,695.612244 
	C220.976151,702.944031 214.807449,708.079163 207.723877,712.510010 
	C207.574478,712.743164 207.157349,712.988037 206.956024,713.122009 
M208.189819,668.570557 
	C205.675049,660.810120 200.750793,655.380859 192.438034,654.486694 
	C183.406281,653.515137 176.152924,657.555176 171.050598,664.828369 
	C163.224579,675.984314 169.628784,691.175354 183.027771,693.866211 
	C197.496628,696.771973 210.153503,684.556641 208.189819,668.570557 
M159.577026,663.820557 
	C159.429688,664.787048 159.108185,665.866150 160.380478,666.305237 
	C161.292374,666.619751 162.092606,666.087891 162.347031,665.284729 
	C162.928543,663.449097 164.474670,661.480286 162.282272,659.710266 
	C160.106247,660.118347 160.226929,661.843201 159.577026,663.820557 
z"/>
<path fill="#000000" opacity="1.000000" stroke="none" 
	d="
M221.339142,370.654968 
	C222.235199,369.995697 222.839905,369.442108 224.091034,368.296722 
	C225.398758,369.818970 226.675537,371.461334 228.114700,372.946350 
	C230.718735,375.633301 231.054703,377.662598 228.176102,380.908325 
	C226.018509,383.341125 223.009293,385.435944 222.059448,389.009857 
	C221.682785,390.427094 213.941116,391.143768 212.895523,389.718842 
	C210.870758,386.959503 210.965973,383.729218 212.921448,380.975433 
	C215.436813,377.433136 218.321930,374.153442 221.339142,370.654968 
z"/>
<path fill="#000000" opacity="1.000000" stroke="none" 
	d="
M616.004456,713.368652 
	C619.880493,706.624023 625.339111,701.473633 629.548157,695.383850 
	C630.534729,693.956360 631.650391,693.821228 632.939331,694.209290 
	C634.329163,694.627747 634.075012,696.026123 634.279724,697.148682 
	C635.795105,705.460205 631.590210,711.240662 625.371277,715.579285 
	C623.347656,716.991089 619.968506,716.730042 617.212280,716.714172 
	C615.701904,716.705444 615.215393,715.180359 616.004456,713.368652 
z"/>
<path fill="#000000" opacity="1.000000" stroke="none" 
	d="
M651.924194,401.313171 
	C651.581970,405.098389 653.605286,408.811249 650.651245,411.729095 
	C645.248901,417.065186 638.793823,420.365845 631.221863,418.013519 
	C624.718201,415.993042 620.680237,410.579071 619.119141,404.138397 
	C618.064697,399.787811 617.580994,394.753296 622.082153,391.360413 
	C625.934082,388.456787 630.306519,386.354950 634.778198,384.779724 
	C637.378052,383.863892 640.599792,385.967499 642.413940,387.296753 
	C646.901245,390.584656 651.981201,394.121918 651.924194,401.313171 
z"/>
<path fill="#000000" opacity="1.000000" stroke="none" 
	d="
M675.264709,620.909302 
	C677.497559,631.209473 673.087219,637.439758 659.262756,642.119080 
	C662.926086,637.878601 662.268616,633.574402 663.929565,629.822754 
	C665.313660,626.696350 666.813599,623.552612 667.613892,620.258972 
	C668.205872,617.822998 668.883484,616.172058 671.608887,616.262146 
	C674.308350,616.351379 675.411194,617.902588 675.264709,620.909302 
z"/>
<path fill="#000000" opacity="1.000000" stroke="none" 
	d="
M313.568146,284.025482 
	C309.190765,279.690125 314.348846,277.342133 315.861389,275.474762 
	C320.083923,270.261688 329.500671,269.111938 335.495911,271.770050 
	C336.975586,272.426086 338.193268,273.072327 338.045898,274.933411 
	C337.884979,276.966187 335.939636,276.566956 334.905182,277.355591 
	C330.246857,280.907104 323.996338,280.303162 319.314758,283.688019 
	C317.751892,284.817993 315.771240,284.207153 313.568146,284.025482 
z"/>
<path fill="#000000" opacity="1.000000" stroke="none" 
	d="
M193.818085,689.909180 
	C192.994446,690.104309 192.491394,690.152100 192.014496,690.290283 
	C181.534622,693.324646 172.397705,688.168823 169.282944,677.003906 
	C168.521347,674.273987 169.489838,671.849487 170.800568,669.945190 
	C174.081863,665.178162 177.732590,660.595764 183.673141,658.798096 
	C184.620453,658.511475 185.633682,658.381287 186.522980,657.974426 
	C192.959183,655.029541 200.457809,659.362549 201.342850,666.503418 
	C201.646423,668.952637 201.667511,671.191040 199.233246,672.632935 
	C197.187485,673.844727 196.330261,675.734253 197.653854,677.648010 
	C198.950974,679.523376 200.604141,677.897766 202.042648,677.210205 
	C202.612747,676.937683 203.214264,676.730896 205.356689,675.867188 
	C203.645615,683.302368 196.270966,684.600952 193.818085,689.909180 
z"/>
</svg>